<?xml version="1.0" standalone="no"?>
<!DOCTYPE svg PUBLIC "-//W3C//DTD SVG 20010904//EN"
 "http://www.w3.org/TR/2001/REC-SVG-20010904/DTD/svg10.dtd">
<svg version="1.0" xmlns="http://www.w3.org/2000/svg"
 width="895.000000pt" height="895.000000pt" viewBox="0 0 895.000000 895.000000"
 preserveAspectRatio="xMidYMid meet">
<metadata>
Created by potrace 1.14, written by Peter Selinger 2001-2017
</metadata>
<g transform="translate(0.000000,895.000000) scale(0.100000,-0.100000)"
fill="#000000" stroke="none">
<path d="M2647 6573 c-11 -19 -18 -92 -17 -162 0 -42 1 -406 1 -810 0 -409 4
-744 10 -757 8 -24 10 -24 158 -24 109 0 152 3 158 13 7 10 13 299 13 630 l0
77 100 0 99 0 1 -82 c0 -46 4 -99 8 -118 7 -31 12 -35 44 -38 l37 -3 1 -82 c0
-45 4 -98 8 -117 7 -31 12 -35 44 -38 l36 -3 1 -82 c1 -45 5 -98 9 -117 l8
-35 149 -3 c81 -1 152 1 156 5 20 21 27 218 11 278 -7 25 -14 30 -45 33 l-36
3 0 72 c0 70 -8 144 -18 160 -2 4 -20 7 -39 7 l-34 0 -1 93 c-1 113 -8 141
-36 145 -21 3 -22 9 -22 83 l0 79 85 0 c80 0 84 1 85 23 0 12 2 31 5 42 2 11
4 55 5 98 0 68 3 77 19 77 10 0 21 3 23 8 18 28 23 206 9 272 -7 34 -9 35 -59
38 l-50 3 -5 107 c-2 60 -8 113 -12 120 -5 9 -117 12 -456 12 -247 0 -451 -3
-453 -7z m643 -395 c2 -117 2 -132 0 -230 l-1 -88 -159 0 -160 0 -1 83 c0 45
-1 98 -1 117 0 19 1 72 1 118 l1 82 160 0 159 0 1 -82z"/>
<path d="M4043 6568 c-9 -14 -14 -256 -11 -503 1 -16 0 -52 -1 -80 -3 -56 -3
-442 0 -550 2 -78 2 -83 0 -210 -2 -200 4 -384 15 -395 7 -7 135 -9 399 -8
l389 3 8 35 c14 64 9 245 -8 271 -3 5 -108 9 -235 9 l-229 0 -2 93 c-1 50 -1
103 -1 117 1 14 2 62 3 108 l1 82 229 0 c126 0 231 4 234 8 22 36 22 268 0
304 -3 4 -108 8 -234 8 l-228 0 -4 103 c-1 56 -2 146 0 199 l3 98 232 2 232 3
10 64 c10 63 4 218 -9 240 -11 17 -782 15 -793 -1z"/>
<path d="M5205 6568 c-20 -56 -20 -265 -1 -297 5 -7 60 -11 175 -11 l168 0 2
-87 c4 -115 4 -129 2 -188 -2 -39 -3 -488 -2 -555 1 -8 1 -125 1 -260 0 -135
3 -269 6 -297 l6 -53 154 0 c115 0 156 3 159 13 11 30 15 78 15 162 -1 50 -1
169 0 265 1 237 1 214 0 410 0 96 -1 218 -1 270 0 52 0 106 -1 120 0 14 0 64
1 113 l1 87 170 0 c128 0 172 3 175 13 17 48 21 219 7 272 l-8 30 -512 3
c-405 2 -514 0 -517 -10z"/>
<path d="M6487 6573 c-11 -19 -18 -93 -17 -167 0 -45 1 -409 1 -810 0 -407 4
-739 9 -752 9 -24 11 -24 159 -24 109 0 152 3 158 13 7 10 13 299 13 630 l0
77 100 0 99 0 1 -82 c0 -46 4 -99 8 -118 7 -31 12 -35 44 -38 l37 -3 1 -82 c0
-45 4 -98 8 -117 7 -31 12 -35 44 -38 l36 -3 1 -82 c1 -45 5 -98 9 -117 l8
-35 149 -3 c81 -1 152 1 156 5 19 21 27 218 11 278 -7 25 -14 30 -45 33 l-36
3 0 72 c0 70 -8 144 -18 160 -2 4 -20 7 -39 7 l-34 0 -1 93 c-1 113 -8 141
-36 145 -21 3 -22 9 -22 83 l0 79 85 0 c80 0 84 1 85 23 0 12 2 31 5 42 2 11
4 55 5 98 0 68 3 77 19 77 10 0 21 3 23 8 18 28 23 207 9 272 -7 34 -9 35 -59
38 l-50 3 -5 107 c-2 60 -8 113 -12 120 -5 9 -117 12 -456 12 -247 0 -451 -3
-453 -7z m643 -395 c2 -117 2 -132 0 -230 l-1 -88 -159 0 -160 0 -1 83 c0 45
-1 98 -1 117 0 19 1 72 1 118 l1 82 160 0 159 0 1 -82z"/>
<path d="M8007 6573 c-11 -19 -19 -94 -18 -160 l1 -73 -64 0 c-36 0 -67 -3
-70 -8 -9 -15 -18 -98 -18 -164 l1 -67 -37 -3 c-46 -4 -53 -27 -51 -158 1 -52
1 -108 1 -125 -1 -16 -1 -70 0 -120 0 -49 0 -103 0 -120 -3 -112 0 -205 6
-235 7 -31 12 -35 44 -38 l36 -3 1 -82 c1 -45 5 -98 9 -117 l8 -35 66 -3 65
-3 5 -107 c2 -60 8 -113 12 -120 8 -14 541 -18 549 -4 10 16 18 90 18 159 l-1
72 67 3 c65 3 67 4 75 33 5 17 9 69 9 118 l1 87 38 0 38 0 6 54 c4 29 7 89 6
132 -1 98 -1 328 0 454 1 131 -7 154 -52 158 l-37 3 1 67 c0 66 -9 149 -18
164 -3 5 -34 8 -69 8 l-65 0 0 83 c0 45 -4 98 -8 117 l-8 35 -271 3 c-149 1
-274 -1 -276 -5z m373 -395 c0 -46 3 -99 8 -118 7 -31 12 -35 44 -38 l36 -3 2
-92 c2 -51 2 -103 2 -117 0 -14 0 -68 0 -120 1 -104 1 -104 -1 -224 l-2 -85
-37 -3 c-32 -3 -37 -7 -44 -38 -5 -19 -9 -72 -9 -117 l-1 -83 -99 0 -98 0 0
73 c1 69 -8 143 -18 160 -2 4 -20 7 -39 7 l-34 0 -1 93 c0 50 0 157 0 237 0
80 1 182 1 227 l0 82 37 3 c33 3 38 7 45 38 5 19 9 72 9 118 l1 82 99 0 99 0
0 -82z"/>
<path d="M405 5368 c-12 -31 -20 -148 -14 -208 4 -36 4 -85 0 -110 -7 -49 2
-201 13 -219 11 -17 362 -15 373 2 4 6 9 77 10 157 4 239 3 313 -5 350 l-8 35
-182 3 c-141 2 -184 0 -187 -10z"/>
<path d="M1685 5368 c-12 -30 -20 -148 -14 -207 3 -34 3 -88 0 -120 -6 -53 2
-179 13 -208 5 -11 42 -13 188 -11 l182 3 8 35 c4 19 7 76 7 125 -2 105 -2
121 0 235 0 47 -3 101 -7 120 l-8 35 -182 3 c-141 2 -184 0 -187 -10z"/>
<path d="M115 3989 c-27 -3 -47 -7 -43 -7 4 -1 3 -14 -3 -29 -5 -14 -9 -67 -8
-117 1 -109 1 -115 1 -236 0 -52 0 -106 0 -120 0 -14 0 -68 0 -120 0 -52 0
-106 0 -120 0 -14 0 -68 0 -120 0 -52 0 -106 0 -120 0 -14 0 -68 0 -120 0 -52
0 -106 0 -120 0 -14 0 -68 0 -120 0 -52 0 -106 0 -120 0 -14 0 -63 -1 -110 -2
-89 5 -159 18 -173 10 -10 772 -10 782 0 11 12 21 91 21 165 l-1 67 52 3 c50
3 52 4 59 38 4 19 8 72 9 118 l1 82 49 0 c26 0 50 3 53 8 10 17 18 101 16 172
-2 85 -2 84 -1 200 0 47 0 103 0 125 -1 22 0 74 1 115 2 76 -5 154 -16 171 -3
5 -27 9 -54 9 l-49 0 1 63 c0 66 -9 154 -18 168 -3 5 -27 9 -54 9 l-48 0 0 68
c0 76 -10 153 -21 165 -9 9 -674 15 -746 6z m544 -401 c1 -46 5 -99 9 -118 7
-34 9 -35 58 -38 l51 -3 3 -87 c1 -48 2 -96 2 -107 0 -35 0 -209 0 -235 0 -14
-1 -67 -1 -117 l-2 -93 -49 0 c-27 0 -51 -3 -53 -7 -10 -16 -18 -90 -18 -160
l0 -72 -128 0 -128 -1 -3 88 c-1 48 -2 103 -2 122 1 19 1 71 1 115 -1 44 -1
97 -1 118 1 128 1 187 1 222 -1 22 -1 76 0 120 0 44 0 98 0 120 0 22 0 79 1
127 l2 86 127 1 128 2 2 -83z"/>
<path d="M1625 3992 c-44 -2 -83 -6 -87 -10 -24 -24 -25 -266 -2 -304 3 -4 41
-8 84 -8 l79 0 1 -77 c1 -92 2 -123 2 -243 0 -49 0 -103 0 -120 0 -50 0 -223
-1 -260 0 -19 0 -69 1 -110 0 -116 0 -139 -2 -227 l-3 -83 -78 0 c-43 0 -80
-4 -83 -9 -24 -38 -21 -279 3 -304 8 -8 647 -11 660 -2 26 15 29 267 4 308 -2
4 -39 7 -82 7 l-78 0 -3 88 c-1 48 -2 98 -2 112 0 14 0 68 0 120 0 52 0 105 0
118 0 12 0 66 0 120 0 53 0 113 1 132 0 31 0 72 0 220 0 25 0 82 1 128 l2 82
83 0 83 0 7 55 c13 111 3 252 -19 261 -14 5 -460 10 -571 6z"/>
<path d="M2950 3992 c-96 -1 -178 -6 -182 -10 -11 -12 -19 -72 -20 -154 l0
-77 -51 -3 c-50 -3 -51 -4 -59 -38 -9 -44 -8 -453 1 -488 7 -24 13 -27 59 -30
l52 -3 1 -82 c0 -79 4 -118 14 -144 3 -10 72 -13 295 -13 l290 0 1 -92 c1 -51
1 -104 1 -118 0 -14 -2 -62 -3 -107 l-1 -83 -188 0 -187 1 -2 72 c-1 86 -10
155 -21 162 -16 10 -293 6 -303 -4 -16 -16 -22 -231 -7 -275 11 -35 13 -36 61
-36 l49 0 1 -82 c1 -92 6 -139 18 -151 8 -8 767 -11 780 -3 12 8 21 77 22 163
l1 72 51 3 c50 3 52 4 59 38 4 19 8 76 8 125 -1 227 -6 371 -13 383 -5 7 -29
12 -57 12 l-48 0 -1 74 c-1 72 -9 144 -18 159 -2 4 -134 7 -292 7 l-289 0 -2
93 c-2 50 -3 103 -2 117 0 14 1 62 1 107 l1 83 189 0 189 -1 1 -72 c1 -96 10
-156 26 -165 8 -4 78 -5 156 -2 l143 5 8 30 c15 56 9 248 -8 277 -3 4 -27 8
-55 8 l-49 0 -1 83 c-1 91 -6 138 -18 150 -8 8 -335 13 -601 9z"/>
<path d="M4160 3992 c-123 -1 -228 -6 -231 -10 -12 -12 -20 -83 -18 -167 0
-44 1 -93 1 -110 0 -16 0 -70 0 -120 0 -49 0 -103 0 -120 0 -16 0 -70 0 -120
0 -49 0 -103 0 -120 0 -16 0 -70 0 -120 0 -49 0 -103 0 -120 0 -16 0 -70 0
-120 0 -49 0 -103 0 -120 0 -16 0 -70 0 -120 0 -49 0 -103 0 -120 0 -16 -1
-64 -1 -105 -2 -82 6 -151 17 -162 7 -7 99 -10 238 -9 48 1 71 5 73 14 4 19
11 293 10 397 -2 119 -2 117 1 222 l2 88 284 0 c157 0 289 2 293 5 12 7 21 76
22 163 l1 72 49 0 c27 0 51 5 56 13 13 20 17 448 5 507 -8 34 -9 35 -60 38
l-52 3 1 67 c1 85 -10 162 -25 168 -16 6 -402 9 -666 6z m472 -420 c1 -53 1
-106 0 -117 -1 -11 -2 -57 -3 -102 l-1 -83 -189 0 -189 0 -1 93 c-1 50 -1 101
-1 112 1 11 2 59 2 108 l2 87 189 0 189 -1 2 -97z"/>
<path d="M6835 3990 c-46 -5 -50 -7 -56 -35 -4 -16 -7 -69 -8 -117 -1 -81 -2
-87 -23 -90 -29 -4 -36 -31 -37 -145 l-1 -93 -34 0 c-19 0 -37 -3 -39 -7 -10
-16 -18 -91 -18 -160 0 -65 -2 -73 -19 -73 -10 0 -21 -3 -24 -8 -10 -16 -18
-99 -16 -162 2 -93 2 -124 0 -222 l-2 -88 -41 0 c-22 0 -38 -3 -35 -6 4 -3 2
-20 -3 -37 -6 -18 -9 -72 -9 -122 3 -312 6 -375 16 -385 7 -7 56 -11 125 -11
177 0 193 1 187 7 -4 3 -2 20 3 37 6 18 9 73 9 122 -2 96 -2 106 0 233 l1 82
189 0 190 0 1 -92 c2 -268 5 -364 12 -375 6 -10 50 -13 164 -13 86 0 154 3
151 6 -4 3 -2 20 3 37 6 18 9 73 9 122 -2 95 -2 98 -1 240 1 126 -6 149 -51
153 l-36 3 -2 87 c-2 97 -2 129 0 217 2 62 -6 151 -16 166 -3 5 -14 9 -24 9
-17 0 -19 8 -19 68 1 73 -7 147 -16 162 -3 6 -21 10 -40 10 l-33 0 -1 87 c-1
105 -14 153 -42 153 -17 0 -19 8 -20 83 0 79 -4 118 -14 144 -4 13 -285 23
-380 13z m204 -643 c1 -111 11 -151 38 -155 21 -3 22 -9 21 -83 l-1 -79 -98 0
-97 0 0 80 c0 71 2 80 18 80 10 0 21 3 24 8 9 15 18 99 18 163 l-1 67 39 0 38
1 1 -82z"/>
<path d="M5327 3983 c-12 -22 -17 -73 -16 -156 0 -51 1 -105 1 -122 0 -16 0
-66 0 -110 -1 -44 0 -93 0 -110 0 -16 0 -73 -1 -125 0 -85 0 -160 0 -490 1
-103 1 -115 1 -235 -1 -44 0 -93 0 -110 0 -16 -1 -71 -2 -121 -2 -94 6 -161
20 -169 18 -11 893 -6 904 5 15 15 15 285 0 300 -7 7 -106 10 -297 10 l-286 0
-1 83 c-2 103 -2 122 -2 232 0 50 0 104 0 120 0 17 0 73 0 125 4 488 0 819 -9
848 l-11 32 -148 0 c-82 0 -151 -3 -153 -7z"/>
<path d="M7763 3978 c-13 -21 -15 -476 -3 -514 11 -32 14 -34 61 -34 l49 0 1
-82 c0 -80 4 -119 14 -145 3 -8 23 -13 54 -13 l49 0 0 -62 c0 -69 9 -156 18
-169 3 -5 27 -9 55 -9 l49 0 2 -92 c1 -51 1 -104 0 -118 -1 -27 -1 -165 0
-220 0 -19 0 -75 -1 -125 0 -49 3 -106 7 -125 l8 -35 149 -3 c96 -2 152 1 159
8 11 11 19 257 14 490 0 19 1 77 2 128 l2 92 54 0 c52 0 54 1 55 28 0 15 2 36
5 47 2 11 4 52 5 92 l0 72 52 3 c47 3 51 5 59 33 5 17 9 69 9 117 l0 87 51 3
c48 3 52 5 60 33 4 17 8 75 7 130 -1 111 -1 124 0 245 1 47 -2 99 -7 115 l-8
30 -149 3 c-96 2 -152 -1 -159 -8 -7 -7 -12 -68 -13 -153 -2 -78 -3 -181 -4
-229 l-1 -87 -52 -3 c-48 -3 -51 -5 -57 -33 -4 -16 -7 -69 -8 -117 l-1 -88
-70 0 -69 0 0 83 c-1 79 -6 132 -17 149 -3 4 -27 8 -54 8 l-48 0 -2 93 c-3
107 -3 107 -1 212 1 80 -5 150 -15 166 -9 15 -301 11 -311 -3z"/>
</g>
</svg>
